<svg width="81" height="81" viewBox="0 0 81 81" fill="none" xmlns="http://www.w3.org/2000/svg">
<rect width="81" height="81" rx="20" fill="#F25528"/>
<g clip-path="url(#clip0_3363_1325)">
<path d="M53.408 52.4088H53.4651C53.5005 52.4115 53.536 52.4115 53.5714 52.4088C55.5071 51.8644 65.7666 42.2705 65.9949 39.4217C66.2232 36.5728 59.861 36.9902 59.861 36.9902C56.7474 36.9461 49.4822 37.0187 46.9549 36.9902C46.9549 36.9902 40.6005 36.5728 40.821 39.4217C41.0416 42.2705 51.3063 51.8644 53.2445 52.4088C53.2799 52.4115 53.3155 52.4115 53.3509 52.4088H53.408Z" fill="white"/>
<path d="M37.5202 62C33.2637 62.0005 29.1027 60.74 25.5633 58.3779C22.0239 56.0157 19.2652 52.6581 17.636 48.7295C16.0067 44.8009 15.5802 40.4779 16.4103 36.3071C17.2404 32.1364 19.2898 28.3052 22.2994 25.2981C25.309 22.291 29.1435 20.2431 33.3182 19.4133C37.4928 18.5835 41.82 19.0091 45.7525 20.6363C49.685 22.2635 53.0462 25.0193 55.411 28.555C57.7759 32.0907 59.0381 36.2476 59.0381 40.5H48.5996C48.5996 38.3102 47.9496 36.1695 46.7317 34.3488C45.5139 32.5281 43.783 31.109 41.7579 30.2711C39.7328 29.4332 37.5044 29.2141 35.3546 29.6415C33.2049 30.0689 31.2303 31.1236 29.6805 32.6723C28.1308 34.2209 27.0755 36.1939 26.6482 38.3417C26.2209 40.4895 26.4407 42.7157 27.2799 44.7387C28.1191 46.7617 29.5399 48.4906 31.3626 49.7068C33.1854 50.9231 35.3283 51.572 37.5202 51.5715C38.7456 51.5749 39.9629 51.3733 41.1216 50.9752C41.5628 50.8168 42.0463 50.8224 42.4837 50.9909C42.9211 51.1594 43.2831 51.4796 43.5036 51.8929L46.5783 57.7332C46.7052 57.9709 46.7808 58.2325 46.8003 58.5011C46.8199 58.7698 46.7829 59.0395 46.6917 59.293C46.6005 59.5465 46.4572 59.7781 46.271 59.9729C46.0847 60.1677 45.8597 60.3213 45.6105 60.4239C43.0399 61.4631 40.2932 61.9982 37.5202 62Z" fill="white"/>
</g>
<defs>
<clipPath id="clip0_3363_1325">
<rect width="50" height="43" fill="white" transform="translate(16 19)"/>
</clipPath>
</defs>
</svg>
